<svg xmlns="http://www.w3.org/2000/svg" width="1em" height="1em" viewBox="0 0 24 24"><path fill="none" stroke="currentColor" stroke-linecap="round" stroke-linejoin="round" stroke-width="1.5" d="M14.074 3.885c.745-.807 1.117-1.21 1.513-1.446a3.1 3.1 0 0 1 3.103-.047c.403.224.787.616 1.555 1.4c.768.785 1.152 1.178 1.37 1.589a3.29 3.29 0 0 1-.045 3.17c-.23.404-.625.785-1.416 1.546l-9.403 9.057c-1.498 1.443-2.247 2.164-3.183 2.53s-1.965.338-4.023.285l-.28-.008c-.626-.016-.94-.024-1.121-.231c-.183-.207-.158-.526-.108-1.164l.027-.346c.14-1.796.21-2.694.56-3.502s.956-1.463 2.166-2.774zM13 4l7 7m-6 11h8" color="currentColor"/></svg>